# xmcd CD database file
#
# Track frame offsets:
#	150
#	32590
#	53560
#	77998
#	102922
#	118167
#	138417
#	165496
#	182161
#
# Disc length: 2698 seconds
#
# Revision: 0
# Processed by: cddbd v1.5.2PL0 Copyright (c) Steve Scherf et al.
# Submitted via: CDex 1.70beta2
#
DISCID=710a8809
DTITLE=Uli Kempendorff - Louise
DYEAR=2009
DGENRE=Jazz
TTITLE0=Surcharge
TTITLE1=Stuck
TTITLE2=Rosen
TTITLE3=Gruﬂ an die Siebziger
TTITLE4=Can't read your signal
TTITLE5=Aprilwetter
TTITLE6=Ringelreih
TTITLE7=Arrested Development
TTITLE8=Faltenreich
EXTD=YEAR: 2009
EXTT0=
EXTT1=
EXTT2=
EXTT3=
EXTT4=
EXTT5=
EXTT6=
EXTT7=
EXTT8=
PLAYORDER=
